<svg width="1440" height="451" viewBox="0 0 1440 451" fill="none" xmlns="http://www.w3.org/2000/svg">
<path d="M3.8888 345.332L3.87722 344.786C3.81498 338.998 4.32315 334.381 5.40173 330.933C6.48032 327.485 8.05747 324.678 10.1332 322.512C12.2089 320.346 14.7123 318.338 17.6434 316.488C19.4077 315.359 20.9861 314.038 22.3785 312.523C23.7702 310.978 24.8542 309.212 25.6304 307.225C26.4369 305.238 26.8148 303.048 26.764 300.654C26.7009 297.685 25.9494 295.125 24.5095 292.973C23.0696 290.821 21.1707 289.18 18.8128 288.047C16.4549 286.915 13.852 286.38 11.0042 286.44C8.5199 286.493 6.13743 287.059 3.85679 288.138C1.57614 289.217 -0.313258 290.878 -1.81142 293.123C-3.30958 295.367 -4.1419 298.279 -4.30838 301.859L-15.7603 302.103C-15.6273 296.947 -14.3878 292.511 -12.042 288.793C-9.66579 285.075 -6.49873 282.205 -2.54079 280.181C1.44744 278.156 5.89555 277.092 10.8035 276.988C16.1357 276.875 20.7935 277.836 24.777 279.874C28.7908 281.91 31.9125 284.754 34.142 288.404C36.4018 292.054 37.5818 296.242 37.6822 300.968C37.7529 304.301 37.3019 307.326 36.329 310.044C35.3865 312.762 33.9834 315.201 32.1198 317.363C30.2864 319.523 28.0541 321.45 25.4227 323.142C22.792 324.865 20.6935 326.668 19.127 328.55C17.5599 330.402 16.4395 332.593 15.7657 335.123C15.092 337.653 14.7647 340.797 14.7839 344.555L14.7954 345.1L3.8888 345.332ZM10.2768 372.111C8.03484 372.159 6.09399 371.397 4.4542 369.825C2.81442 368.254 1.97073 366.347 1.92314 364.105C1.87555 361.863 2.63756 359.922 4.20918 358.282C5.78079 356.643 7.68756 355.799 9.92947 355.751C12.1714 355.704 14.1122 356.466 15.752 358.037C17.3918 359.609 18.2355 361.516 18.2831 363.758C18.3146 365.242 17.9648 366.613 17.2338 367.872C16.5331 369.129 15.5697 370.15 14.3436 370.934C13.1472 371.687 11.7916 372.079 10.2768 372.111Z" fill="#001AFF" fill-opacity="0.7"/>
<path d="M1340.89 258.332L1340.88 257.786C1340.81 251.998 1341.32 247.381 1342.4 243.933C1343.48 240.485 1345.06 237.678 1347.13 235.512C1349.21 233.346 1351.71 231.338 1354.64 229.488C1356.41 228.359 1357.99 227.038 1359.38 225.523C1360.77 223.978 1361.85 222.212 1362.63 220.225C1363.44 218.238 1363.81 216.048 1363.76 213.654C1363.7 210.685 1362.95 208.125 1361.51 205.973C1360.07 203.821 1358.17 202.18 1355.81 201.047C1353.45 199.915 1350.85 199.38 1348 199.44C1345.52 199.493 1343.14 200.059 1340.86 201.138C1338.58 202.217 1336.69 203.878 1335.19 206.123C1333.69 208.367 1332.86 211.279 1332.69 214.859L1321.24 215.103C1321.37 209.947 1322.61 205.511 1324.96 201.793C1327.33 198.075 1330.5 195.205 1334.46 193.181C1338.45 191.156 1342.9 190.092 1347.8 189.988C1353.14 189.875 1357.79 190.836 1361.78 192.874C1365.79 194.91 1368.91 197.754 1371.14 201.404C1373.4 205.054 1374.58 209.242 1374.68 213.968C1374.75 217.301 1374.3 220.326 1373.33 223.044C1372.39 225.762 1370.98 228.201 1369.12 230.363C1367.29 232.523 1365.05 234.45 1362.42 236.142C1359.79 237.865 1357.69 239.668 1356.13 241.55C1354.56 243.402 1353.44 245.593 1352.77 248.123C1352.09 250.653 1351.76 253.797 1351.78 257.555L1351.8 258.1L1340.89 258.332ZM1347.28 285.111C1345.03 285.159 1343.09 284.397 1341.45 282.825C1339.81 281.254 1338.97 279.347 1338.92 277.105C1338.88 274.863 1339.64 272.922 1341.21 271.282C1342.78 269.643 1344.69 268.799 1346.93 268.751C1349.17 268.704 1351.11 269.466 1352.75 271.037C1354.39 272.609 1355.24 274.516 1355.28 276.758C1355.31 278.242 1354.96 279.613 1354.23 280.872C1353.53 282.129 1352.57 283.15 1351.34 283.934C1350.15 284.687 1348.79 285.079 1347.28 285.111Z" fill="#001AFF" fill-opacity="0.7"/>
<path d="M113.457 155.308L113.438 154.456C113.341 145.412 114.135 138.197 115.821 132.809C117.506 127.422 119.97 123.036 123.213 119.652C126.457 116.268 130.368 113.131 134.948 110.239C137.705 108.476 140.171 106.411 142.347 104.044C144.521 101.63 146.215 98.8707 147.428 95.7667C148.688 92.6616 149.278 89.2392 149.199 85.4995C149.101 80.8604 147.926 76.8598 145.676 73.4977C143.427 70.1356 140.459 67.5701 136.775 65.8013C133.091 64.0325 129.024 63.1954 124.574 63.2898C120.693 63.3722 116.97 64.2563 113.407 65.9422C109.843 67.6281 106.891 70.2244 104.55 73.7313C102.209 77.2383 100.909 81.7887 100.648 87.3826L82.7548 87.7624C82.9626 79.7069 84.8993 72.7751 88.5647 66.9668C92.2775 61.1575 97.226 56.6718 103.41 53.5095C109.642 50.3462 116.592 48.6832 124.261 48.5204C132.592 48.3436 139.87 49.8466 146.094 53.0296C152.366 56.2117 157.244 60.6546 160.727 66.3585C164.258 72.0613 166.102 78.6051 166.259 85.9898C166.369 91.197 165.664 95.9242 164.144 100.171C162.672 104.418 160.479 108.229 157.567 111.606C154.703 114.982 151.215 117.992 147.103 120.637C142.993 123.329 139.714 126.146 137.266 129.086C134.818 131.98 133.067 135.403 132.014 139.356C130.962 143.31 130.45 148.222 130.48 154.094L130.498 154.946L113.457 155.308ZM123.438 197.151C119.935 197.225 116.902 196.035 114.34 193.579C111.778 191.123 110.46 188.144 110.385 184.641C110.311 181.138 111.501 178.105 113.957 175.543C116.413 172.981 119.392 171.663 122.895 171.588C126.398 171.514 129.431 172.705 131.993 175.16C134.555 177.616 135.873 180.595 135.948 184.098C135.997 186.418 135.45 188.561 134.308 190.527C133.213 192.492 131.708 194.086 129.792 195.311C127.923 196.487 125.805 197.101 123.438 197.151Z" fill="#001AFF"/>
<path d="M1215.3 117.828L1215.29 117.232C1215.22 110.901 1215.78 105.85 1216.96 102.079C1218.14 98.308 1219.86 95.238 1222.13 92.8693C1224.4 90.5005 1227.14 88.3041 1230.35 86.2801C1232.28 85.0457 1234 83.6001 1235.53 81.9433C1237.05 80.2535 1238.23 78.3221 1239.08 76.1492C1239.96 73.9757 1240.38 71.58 1240.32 68.9622C1240.25 65.7148 1239.43 62.9144 1237.86 60.5609C1236.28 58.2075 1234.2 56.4116 1231.63 55.1735C1229.05 53.9353 1226.2 53.3493 1223.09 53.4154C1220.37 53.4731 1217.76 54.092 1215.27 55.2721C1212.77 56.4522 1210.71 58.2697 1209.07 60.7245C1207.43 63.1793 1206.52 66.3646 1206.34 70.2804L1193.81 70.5462C1193.96 64.9074 1195.31 60.0551 1197.88 55.9893C1200.48 51.9228 1203.94 48.7828 1208.27 46.5692C1212.63 44.3549 1217.5 43.1908 1222.87 43.0768C1228.7 42.953 1233.79 44.0052 1238.15 46.2333C1242.54 48.4607 1245.95 51.5708 1248.39 55.5635C1250.86 59.5555 1252.15 64.1361 1252.26 69.3054C1252.34 72.9504 1251.85 76.2595 1250.78 79.2325C1249.75 82.2049 1248.22 84.873 1246.18 87.2369C1244.17 89.6 1241.73 91.7073 1238.86 93.5585C1235.98 95.4429 1233.68 97.4144 1231.97 99.473C1230.26 101.499 1229.03 103.895 1228.29 106.662C1227.56 109.429 1227.2 112.868 1227.22 116.978L1227.23 117.575L1215.3 117.828ZM1222.29 147.118C1219.84 147.17 1217.71 146.337 1215.92 144.618C1214.13 142.899 1213.2 140.813 1213.15 138.361C1213.1 135.909 1213.93 133.786 1215.65 131.993C1217.37 130.199 1219.46 129.277 1221.91 129.224C1224.36 129.172 1226.48 130.006 1228.28 131.725C1230.07 133.444 1230.99 135.529 1231.05 137.981C1231.08 139.605 1230.7 141.105 1229.9 142.481C1229.13 143.857 1228.08 144.973 1226.74 145.83C1225.43 146.654 1223.95 147.083 1222.29 147.118Z" fill="#001AFF"/>
</svg>
