<svg width="88" height="151" viewBox="0 0 88 151" fill="none" xmlns="http://www.w3.org/2000/svg">
<path d="M32.4566 108.308L32.4385 107.456C32.3412 98.4122 33.1352 91.1968 34.8205 85.8094C36.5058 80.4221 38.9701 76.0364 42.2134 72.6524C45.4567 69.2684 49.3683 66.1307 53.9481 63.2393C56.7048 61.4759 59.171 59.4108 61.3467 57.044C63.5213 54.6299 65.215 51.8707 66.4278 48.7667C67.688 45.6616 68.2784 42.2392 68.199 38.4995C68.1005 33.8604 66.9263 29.8598 64.6764 26.4977C62.4265 23.1356 59.4595 20.5701 55.7753 18.8013C52.0911 17.0325 48.0241 16.1954 43.5744 16.2898C39.6927 16.3722 35.97 17.2563 32.4065 18.9422C28.843 20.6281 25.8908 23.2244 23.55 26.7313C21.2091 30.2383 19.9086 34.7887 19.6485 40.3826L1.75477 40.7624C1.96264 32.7069 3.8993 25.7751 7.56473 19.9668C11.2775 14.1575 16.226 9.67176 22.4103 6.5095C28.6419 3.34623 35.5921 1.6832 43.2608 1.52041C51.5923 1.34356 58.8701 2.84663 65.0944 6.02965C71.366 9.21166 76.2436 13.6546 79.7272 19.3585C83.2581 25.0613 85.1019 31.6051 85.2587 38.9898C85.3692 44.197 84.6645 48.9242 83.1444 53.1714C81.6717 57.4176 79.4794 61.2292 76.5674 64.6062C73.7028 67.9821 70.2148 70.9924 66.1033 73.6371C61.9929 76.3291 58.7138 79.1455 56.2662 82.0864C53.8176 84.9799 52.0669 88.4033 51.0142 92.3564C49.9615 96.3096 49.4502 101.222 49.4801 107.094L49.4982 107.946L32.4566 108.308ZM42.4377 150.151C38.9347 150.225 35.9022 149.035 33.34 146.579C30.7778 144.123 29.4596 141.144 29.3852 137.641C29.3109 134.138 30.5015 131.105 32.9571 128.543C35.4128 125.981 38.3921 124.663 41.8951 124.588C45.3981 124.514 48.4307 125.705 50.9929 128.16C53.555 130.616 54.8733 133.595 54.9476 137.098C54.9969 139.418 54.4504 141.561 53.3081 143.527C52.2132 145.492 50.7079 147.086 48.7922 148.311C46.9228 149.487 44.8046 150.101 42.4377 150.151Z" fill="#001AFF"/>
</svg>
